<svg xmlns="http://www.w3.org/2000/svg" width="1200" height="675" viewBox="0 0 1200 675">
  <defs>
    <linearGradient id="bg" x1="0%" y1="0%" x2="100%" y2="100%">
      <stop offset="0%" stop-color="#102d44" />
      <stop offset="100%" stop-color="#05141f" />
    </linearGradient>
    <linearGradient id="node" x1="0%" y1="0%" x2="100%" y2="100%">
      <stop offset="0%" stop-color="#64d8cb" />
      <stop offset="100%" stop-color="#4aa3f0" />
    </linearGradient>
  </defs>
  <rect width="1200" height="675" fill="url(#bg)" rx="40" />
  <g opacity="0.35" stroke="#64d8cb" stroke-width="1.8" fill="none">
    <path d="M300 260 L600 160 L900 260 L900 420 L600 520 L300 420 Z" />
    <path d="M360 300 L600 220 L840 300 L840 380 L600 460 L360 380 Z" />
  </g>
  <g opacity="0.75" fill="url(#node)">
    <circle cx="600" cy="160" r="26" />
    <circle cx="900" cy="260" r="22" />
    <circle cx="900" cy="420" r="22" />
    <circle cx="600" cy="520" r="26" />
    <circle cx="300" cy="420" r="22" />
    <circle cx="300" cy="260" r="22" />
  </g>
  <g opacity="0.25" stroke="#64d8cb" stroke-width="2" stroke-linecap="round">
    <path d="M600 160 L900 260" />
    <path d="M900 260 L900 420" />
    <path d="M900 420 L600 520" />
    <path d="M600 520 L300 420" />
    <path d="M300 420 L300 260" />
    <path d="M300 260 L600 160" />
  </g>
  <g opacity="0.15" fill="#64d8cb">
    <circle cx="600" cy="160" r="70" />
    <circle cx="600" cy="520" r="70" />
  </g>
</svg>

